# xmcd
#
# Track frame offsets:
#	150
#	23233
#	47303
#	62778
#	90396
#	114737
#	131830
#	154591
#	171777
#	198743
#	225850
#	246413
#	271255
#
# Disc length: 3883 seconds
#
# Revision: 1
# Processed by: cddbd v1.5.2PL0 Copyright (c) Steve Scherf et al.
# Submitted via: audiograbber 1.83.01
#
DISCID=a80f290d
DTITLE=Abi Wallenstein - Blues Culture
DYEAR=2007
DGENRE=Blues
TTITLE0=Drive Me Crazy
TTITLE1=Blues Culture
TTITLE2=Nobody's Children
TTITLE3=Who Is He And What Is He To You
TTITLE4=Country Blues
TTITLE5=Honey Bee Boogie
TTITLE6=As Long As I Can See The Light
TTITLE7=Good Advice
TTITLE8=Don't Mind People Grinnin' In Your Face
TTITLE9=Come Back Baby
TTITLE10=Keep On Keepin' On
TTITLE11=Wild Cow Blues
TTITLE12=Remove This Rope
EXTD=
EXTT0=
EXTT1=
EXTT2=
EXTT3=
EXTT4=
EXTT5=
EXTT6=
EXTT7=
EXTT8=
EXTT9=
EXTT10=
EXTT11=
EXTT12=
PLAYORDER=
